<svg width="30" height="30" viewBox="0 0 30 30" fill="none" xmlns="http://www.w3.org/2000/svg">
<path d="M21.2543 1.39453C19.8555 1.39453 18.5186 1.71519 17.2808 2.34767C16.4382 2.77812 15.6641 3.35004 15 4.02859C14.3358 3.35004 13.5618 2.77812 12.7192 2.34767C11.4813 1.71519 10.1445 1.39453 8.74565 1.39453C3.92332 1.39453 0 5.31785 0 10.1402C0 13.5559 1.8039 17.1835 5.36153 20.9226C8.33196 24.0445 11.9687 26.6469 14.4964 28.2803L15 28.6057L15.5036 28.2803C18.0313 26.6469 21.668 24.0445 24.6385 20.9226C28.1962 17.1835 30 13.5559 30 10.1402C30 5.31785 26.0767 1.39453 21.2543 1.39453ZM23.2942 19.6434C20.6394 22.4334 17.4058 24.8054 15 26.3928C12.5942 24.8053 9.36056 22.4334 6.7059 19.6434C3.48748 16.261 1.85567 13.0637 1.85567 10.1402C1.85567 6.34107 4.94654 3.2502 8.74571 3.2502C10.933 3.2502 12.9422 4.25492 14.2582 6.00668L15 6.9942L15.7418 6.00668C17.0578 4.25492 19.067 3.2502 21.2543 3.2502C25.0535 3.2502 28.1443 6.34107 28.1443 10.1402C28.1443 13.0637 26.5125 16.261 23.2942 19.6434Z" fill="#30373D"/>
<path d="M21.2543 1.39453C19.8555 1.39453 18.5186 1.71519 17.2808 2.34767C16.4382 2.77812 15.6641 3.35004 15 4.02859C14.3358 3.35004 13.5618 2.77812 12.7192 2.34767C11.4813 1.71519 10.1445 1.39453 8.74565 1.39453C3.92332 1.39453 0 5.31785 0 10.1402C0 13.5559 1.8039 17.1835 5.36153 20.9226C8.33196 24.0445 11.9687 26.6469 14.4964 28.2803L15 28.6057L15.5036 28.2803C18.0313 26.6469 21.668 24.0445 24.6385 20.9226C28.1962 17.1835 30 13.5559 30 10.1402C30 5.31785 26.0767 1.39453 21.2543 1.39453ZM23.2942 19.6434C20.6394 22.4334 17.4058 24.8054 15 26.3928C12.5942 24.8053 9.36056 22.4334 6.7059 19.6434C3.48748 16.261 1.85567 13.0637 1.85567 10.1402C1.85567 6.34107 4.94654 3.2502 8.74571 3.2502C10.933 3.2502 12.9422 4.25492 14.2582 6.00668L15 6.9942L15.7418 6.00668C17.0578 4.25492 19.067 3.2502 21.2543 3.2502C25.0535 3.2502 28.1443 6.34107 28.1443 10.1402C28.1443 13.0637 26.5125 16.261 23.2942 19.6434Z" fill="black" fill-opacity="0.2"/>
<path d="M21.2543 1.39453C19.8555 1.39453 18.5186 1.71519 17.2808 2.34767C16.4382 2.77812 15.6641 3.35004 15 4.02859C14.3358 3.35004 13.5618 2.77812 12.7192 2.34767C11.4813 1.71519 10.1445 1.39453 8.74565 1.39453C3.92332 1.39453 0 5.31785 0 10.1402C0 13.5559 1.8039 17.1835 5.36153 20.9226C8.33196 24.0445 11.9687 26.6469 14.4964 28.2803L15 28.6057L15.5036 28.2803C18.0313 26.6469 21.668 24.0445 24.6385 20.9226C28.1962 17.1835 30 13.5559 30 10.1402C30 5.31785 26.0767 1.39453 21.2543 1.39453ZM23.2942 19.6434C20.6394 22.4334 17.4058 24.8054 15 26.3928C12.5942 24.8053 9.36056 22.4334 6.7059 19.6434C3.48748 16.261 1.85567 13.0637 1.85567 10.1402C1.85567 6.34107 4.94654 3.2502 8.74571 3.2502C10.933 3.2502 12.9422 4.25492 14.2582 6.00668L15 6.9942L15.7418 6.00668C17.0578 4.25492 19.067 3.2502 21.2543 3.2502C25.0535 3.2502 28.1443 6.34107 28.1443 10.1402C28.1443 13.0637 26.5125 16.261 23.2942 19.6434Z" fill="black" fill-opacity="0.2"/>
<path d="M21.2543 1.39453C19.8555 1.39453 18.5186 1.71519 17.2808 2.34767C16.4382 2.77812 15.6641 3.35004 15 4.02859C14.3358 3.35004 13.5618 2.77812 12.7192 2.34767C11.4813 1.71519 10.1445 1.39453 8.74565 1.39453C3.92332 1.39453 0 5.31785 0 10.1402C0 13.5559 1.8039 17.1835 5.36153 20.9226C8.33196 24.0445 11.9687 26.6469 14.4964 28.2803L15 28.6057L15.5036 28.2803C18.0313 26.6469 21.668 24.0445 24.6385 20.9226C28.1962 17.1835 30 13.5559 30 10.1402C30 5.31785 26.0767 1.39453 21.2543 1.39453ZM23.2942 19.6434C20.6394 22.4334 17.4058 24.8054 15 26.3928C12.5942 24.8053 9.36056 22.4334 6.7059 19.6434C3.48748 16.261 1.85567 13.0637 1.85567 10.1402C1.85567 6.34107 4.94654 3.2502 8.74571 3.2502C10.933 3.2502 12.9422 4.25492 14.2582 6.00668L15 6.9942L15.7418 6.00668C17.0578 4.25492 19.067 3.2502 21.2543 3.2502C25.0535 3.2502 28.1443 6.34107 28.1443 10.1402C28.1443 13.0637 26.5125 16.261 23.2942 19.6434Z" fill="black" fill-opacity="0.2"/>
<path d="M21.2543 1.39453C19.8555 1.39453 18.5186 1.71519 17.2808 2.34767C16.4382 2.77812 15.6641 3.35004 15 4.02859C14.3358 3.35004 13.5618 2.77812 12.7192 2.34767C11.4813 1.71519 10.1445 1.39453 8.74565 1.39453C3.92332 1.39453 0 5.31785 0 10.1402C0 13.5559 1.8039 17.1835 5.36153 20.9226C8.33196 24.0445 11.9687 26.6469 14.4964 28.2803L15 28.6057L15.5036 28.2803C18.0313 26.6469 21.668 24.0445 24.6385 20.9226C28.1962 17.1835 30 13.5559 30 10.1402C30 5.31785 26.0767 1.39453 21.2543 1.39453ZM23.2942 19.6434C20.6394 22.4334 17.4058 24.8054 15 26.3928C12.5942 24.8053 9.36056 22.4334 6.7059 19.6434C3.48748 16.261 1.85567 13.0637 1.85567 10.1402C1.85567 6.34107 4.94654 3.2502 8.74571 3.2502C10.933 3.2502 12.9422 4.25492 14.2582 6.00668L15 6.9942L15.7418 6.00668C17.0578 4.25492 19.067 3.2502 21.2543 3.2502C25.0535 3.2502 28.1443 6.34107 28.1443 10.1402C28.1443 13.0637 26.5125 16.261 23.2942 19.6434Z" fill="black" fill-opacity="0.2"/>
</svg>
