<svg width="25" height="25" viewBox="0 0 25 25" fill="none" xmlns="http://www.w3.org/2000/svg">
<path d="M12.4999 2.08268C13.6869 2.07654 14.8542 2.38626 15.8821 2.98008C16.9099 3.5739 17.7613 4.43044 18.3489 5.46185C18.9508 6.49099 19.2681 7.66178 19.2681 8.85404C19.2681 10.0463 18.9508 11.2171 18.3489 12.2462L12.4999 22.4046L6.64677 12.2462C6.04482 11.2171 5.72756 10.0463 5.72756 8.85404C5.72756 7.66178 6.04482 6.49099 6.64677 5.46185C7.23446 4.42961 8.08644 3.57249 9.11513 2.9786C10.1438 2.38471 11.3121 2.07547 12.4999 2.08268ZM12.4999 1.04102C11.1284 1.04206 9.78137 1.40413 8.59418 2.09083C7.40698 2.77753 6.42148 3.76465 5.73674 4.95297C5.052 6.14129 4.69215 7.48893 4.69336 8.86042C4.69457 10.2319 5.05681 11.5789 5.74365 12.766L12.0395 23.691C12.0861 23.7719 12.1531 23.8392 12.234 23.8859C12.3148 23.9326 12.4065 23.9572 12.4999 23.9572C12.5933 23.9572 12.685 23.9326 12.7658 23.8859C12.8466 23.8392 12.9137 23.7719 12.9603 23.691L19.2561 12.766C19.943 11.5789 20.3052 10.2319 20.3064 8.86042C20.3076 7.48893 19.9478 6.14129 19.2631 4.95297C18.5783 3.76465 17.5928 2.77753 16.4056 2.09083C15.2184 1.40413 13.8714 1.04206 12.4999 1.04102Z" fill="black"/>
<path d="M12.5003 6.2487C13.0154 6.2487 13.5189 6.40143 13.9471 6.68758C14.3754 6.97373 14.7092 7.38044 14.9063 7.85629C15.1034 8.33214 15.1549 8.85575 15.0545 9.36091C14.954 9.86607 14.706 10.3301 14.3418 10.6943C13.9776 11.0585 13.5135 11.3065 13.0084 11.407C12.5032 11.5075 11.9796 11.4559 11.5038 11.2588C11.0279 11.0617 10.6212 10.7279 10.335 10.2997C10.0489 9.87141 9.89616 9.36792 9.89616 8.85286C9.89972 8.16329 10.1752 7.50298 10.6628 7.01537C11.1504 6.52777 11.8108 6.25226 12.5003 6.2487ZM12.5003 5.20703C11.7792 5.20703 11.0744 5.42086 10.4748 5.82146C9.87526 6.22207 9.40796 6.79148 9.13202 7.45766C8.85607 8.12385 8.78387 8.85691 8.92455 9.56413C9.06522 10.2714 9.41246 10.921 9.92233 11.4309C10.4322 11.9407 11.0818 12.288 11.7891 12.4286C12.4963 12.5693 13.2293 12.4971 13.8955 12.2212C14.5617 11.9452 15.1311 11.4779 15.5317 10.8784C15.9323 10.2788 16.1462 9.57394 16.1462 8.85286C16.1462 7.88593 15.762 6.9586 15.0783 6.27487C14.3946 5.59114 13.4673 5.20703 12.5003 5.20703Z" fill="black"/>
</svg>
