<svg width="22" height="25" viewBox="0 0 22 25" fill="none" xmlns="http://www.w3.org/2000/svg">
<path d="M0.296875 20.8368V22.5021C0.296839 22.6756 0.349434 22.8449 0.447302 22.9862C0.545171 23.1274 0.68342 23.2336 0.842713 23.2899C4.04631 24.4231 7.40995 25.0009 10.7969 25C14.1838 25.0012 17.5475 24.4233 20.751 23.2899C20.9103 23.2336 21.0486 23.1274 21.1464 22.9862C21.2443 22.8449 21.2969 22.6756 21.2969 22.5021V20.8368C21.2934 18.5617 20.5955 16.3454 19.3021 14.502C18.0088 12.6586 16.1855 11.2815 14.0906 10.5659C15.0636 9.84693 15.7901 8.82819 16.1655 7.65637C16.5409 6.48455 16.5458 5.22014 16.1796 4.04525C15.8133 2.87036 15.0948 1.84564 14.1275 1.11867C13.1601 0.391694 11.994 0 10.7969 0C9.59979 0 8.43361 0.391694 7.46628 1.11867C6.49895 1.84564 5.78042 2.87036 5.41416 4.04525C5.0479 5.22014 5.05283 6.48455 5.42824 7.65637C5.80364 8.82819 6.53014 9.84693 7.50311 10.5659C5.40826 11.2815 3.58498 12.6586 2.29161 14.502C0.998243 16.3454 0.300371 18.5617 0.296875 20.8368ZM6.75841 5.84907C6.75841 5.02566 6.99527 4.22074 7.43902 3.5361C7.88277 2.85146 8.51349 2.31784 9.25142 2.00274C9.98936 1.68763 10.8014 1.60518 11.5847 1.76582C12.3681 1.92646 13.0877 2.32297 13.6525 2.90521C14.2173 3.48745 14.6019 4.22927 14.7577 5.03686C14.9136 5.84445 14.8336 6.68154 14.5279 7.44228C14.2223 8.20301 13.7046 8.85322 13.0405 9.31068C12.3764 9.76815 11.5956 10.0123 10.7969 10.0123C9.72615 10.0112 8.6996 9.57218 7.94248 8.79167C7.18536 8.01115 6.75953 6.95288 6.75841 5.84907ZM10.7969 11.6776C13.1524 11.6805 15.4106 12.6464 17.0761 14.3635C18.7417 16.0805 19.6787 18.4085 19.6815 20.8368V21.9012C13.9022 23.8038 7.69157 23.8038 1.91226 21.9012V20.8368C1.91508 18.4085 2.85204 16.0805 4.51762 14.3635C6.1832 12.6464 8.44139 11.6805 10.7969 11.6776Z" fill="#30373D"/>
<path d="M0.296875 20.8368V22.5021C0.296839 22.6756 0.349434 22.8449 0.447302 22.9862C0.545171 23.1274 0.68342 23.2336 0.842713 23.2899C4.04631 24.4231 7.40995 25.0009 10.7969 25C14.1838 25.0012 17.5475 24.4233 20.751 23.2899C20.9103 23.2336 21.0486 23.1274 21.1464 22.9862C21.2443 22.8449 21.2969 22.6756 21.2969 22.5021V20.8368C21.2934 18.5617 20.5955 16.3454 19.3021 14.502C18.0088 12.6586 16.1855 11.2815 14.0906 10.5659C15.0636 9.84693 15.7901 8.82819 16.1655 7.65637C16.5409 6.48455 16.5458 5.22014 16.1796 4.04525C15.8133 2.87036 15.0948 1.84564 14.1275 1.11867C13.1601 0.391694 11.994 0 10.7969 0C9.59979 0 8.43361 0.391694 7.46628 1.11867C6.49895 1.84564 5.78042 2.87036 5.41416 4.04525C5.0479 5.22014 5.05283 6.48455 5.42824 7.65637C5.80364 8.82819 6.53014 9.84693 7.50311 10.5659C5.40826 11.2815 3.58498 12.6586 2.29161 14.502C0.998243 16.3454 0.300371 18.5617 0.296875 20.8368ZM6.75841 5.84907C6.75841 5.02566 6.99527 4.22074 7.43902 3.5361C7.88277 2.85146 8.51349 2.31784 9.25142 2.00274C9.98936 1.68763 10.8014 1.60518 11.5847 1.76582C12.3681 1.92646 13.0877 2.32297 13.6525 2.90521C14.2173 3.48745 14.6019 4.22927 14.7577 5.03686C14.9136 5.84445 14.8336 6.68154 14.5279 7.44228C14.2223 8.20301 13.7046 8.85322 13.0405 9.31068C12.3764 9.76815 11.5956 10.0123 10.7969 10.0123C9.72615 10.0112 8.6996 9.57218 7.94248 8.79167C7.18536 8.01115 6.75953 6.95288 6.75841 5.84907ZM10.7969 11.6776C13.1524 11.6805 15.4106 12.6464 17.0761 14.3635C18.7417 16.0805 19.6787 18.4085 19.6815 20.8368V21.9012C13.9022 23.8038 7.69157 23.8038 1.91226 21.9012V20.8368C1.91508 18.4085 2.85204 16.0805 4.51762 14.3635C6.1832 12.6464 8.44139 11.6805 10.7969 11.6776Z" fill="black" fill-opacity="0.2"/>
<path d="M0.296875 20.8368V22.5021C0.296839 22.6756 0.349434 22.8449 0.447302 22.9862C0.545171 23.1274 0.68342 23.2336 0.842713 23.2899C4.04631 24.4231 7.40995 25.0009 10.7969 25C14.1838 25.0012 17.5475 24.4233 20.751 23.2899C20.9103 23.2336 21.0486 23.1274 21.1464 22.9862C21.2443 22.8449 21.2969 22.6756 21.2969 22.5021V20.8368C21.2934 18.5617 20.5955 16.3454 19.3021 14.502C18.0088 12.6586 16.1855 11.2815 14.0906 10.5659C15.0636 9.84693 15.7901 8.82819 16.1655 7.65637C16.5409 6.48455 16.5458 5.22014 16.1796 4.04525C15.8133 2.87036 15.0948 1.84564 14.1275 1.11867C13.1601 0.391694 11.994 0 10.7969 0C9.59979 0 8.43361 0.391694 7.46628 1.11867C6.49895 1.84564 5.78042 2.87036 5.41416 4.04525C5.0479 5.22014 5.05283 6.48455 5.42824 7.65637C5.80364 8.82819 6.53014 9.84693 7.50311 10.5659C5.40826 11.2815 3.58498 12.6586 2.29161 14.502C0.998243 16.3454 0.300371 18.5617 0.296875 20.8368ZM6.75841 5.84907C6.75841 5.02566 6.99527 4.22074 7.43902 3.5361C7.88277 2.85146 8.51349 2.31784 9.25142 2.00274C9.98936 1.68763 10.8014 1.60518 11.5847 1.76582C12.3681 1.92646 13.0877 2.32297 13.6525 2.90521C14.2173 3.48745 14.6019 4.22927 14.7577 5.03686C14.9136 5.84445 14.8336 6.68154 14.5279 7.44228C14.2223 8.20301 13.7046 8.85322 13.0405 9.31068C12.3764 9.76815 11.5956 10.0123 10.7969 10.0123C9.72615 10.0112 8.6996 9.57218 7.94248 8.79167C7.18536 8.01115 6.75953 6.95288 6.75841 5.84907ZM10.7969 11.6776C13.1524 11.6805 15.4106 12.6464 17.0761 14.3635C18.7417 16.0805 19.6787 18.4085 19.6815 20.8368V21.9012C13.9022 23.8038 7.69157 23.8038 1.91226 21.9012V20.8368C1.91508 18.4085 2.85204 16.0805 4.51762 14.3635C6.1832 12.6464 8.44139 11.6805 10.7969 11.6776Z" fill="black" fill-opacity="0.2"/>
<path d="M0.296875 20.8368V22.5021C0.296839 22.6756 0.349434 22.8449 0.447302 22.9862C0.545171 23.1274 0.68342 23.2336 0.842713 23.2899C4.04631 24.4231 7.40995 25.0009 10.7969 25C14.1838 25.0012 17.5475 24.4233 20.751 23.2899C20.9103 23.2336 21.0486 23.1274 21.1464 22.9862C21.2443 22.8449 21.2969 22.6756 21.2969 22.5021V20.8368C21.2934 18.5617 20.5955 16.3454 19.3021 14.502C18.0088 12.6586 16.1855 11.2815 14.0906 10.5659C15.0636 9.84693 15.7901 8.82819 16.1655 7.65637C16.5409 6.48455 16.5458 5.22014 16.1796 4.04525C15.8133 2.87036 15.0948 1.84564 14.1275 1.11867C13.1601 0.391694 11.994 0 10.7969 0C9.59979 0 8.43361 0.391694 7.46628 1.11867C6.49895 1.84564 5.78042 2.87036 5.41416 4.04525C5.0479 5.22014 5.05283 6.48455 5.42824 7.65637C5.80364 8.82819 6.53014 9.84693 7.50311 10.5659C5.40826 11.2815 3.58498 12.6586 2.29161 14.502C0.998243 16.3454 0.300371 18.5617 0.296875 20.8368ZM6.75841 5.84907C6.75841 5.02566 6.99527 4.22074 7.43902 3.5361C7.88277 2.85146 8.51349 2.31784 9.25142 2.00274C9.98936 1.68763 10.8014 1.60518 11.5847 1.76582C12.3681 1.92646 13.0877 2.32297 13.6525 2.90521C14.2173 3.48745 14.6019 4.22927 14.7577 5.03686C14.9136 5.84445 14.8336 6.68154 14.5279 7.44228C14.2223 8.20301 13.7046 8.85322 13.0405 9.31068C12.3764 9.76815 11.5956 10.0123 10.7969 10.0123C9.72615 10.0112 8.6996 9.57218 7.94248 8.79167C7.18536 8.01115 6.75953 6.95288 6.75841 5.84907ZM10.7969 11.6776C13.1524 11.6805 15.4106 12.6464 17.0761 14.3635C18.7417 16.0805 19.6787 18.4085 19.6815 20.8368V21.9012C13.9022 23.8038 7.69157 23.8038 1.91226 21.9012V20.8368C1.91508 18.4085 2.85204 16.0805 4.51762 14.3635C6.1832 12.6464 8.44139 11.6805 10.7969 11.6776Z" fill="black" fill-opacity="0.2"/>
<path d="M0.296875 20.8368V22.5021C0.296839 22.6756 0.349434 22.8449 0.447302 22.9862C0.545171 23.1274 0.68342 23.2336 0.842713 23.2899C4.04631 24.4231 7.40995 25.0009 10.7969 25C14.1838 25.0012 17.5475 24.4233 20.751 23.2899C20.9103 23.2336 21.0486 23.1274 21.1464 22.9862C21.2443 22.8449 21.2969 22.6756 21.2969 22.5021V20.8368C21.2934 18.5617 20.5955 16.3454 19.3021 14.502C18.0088 12.6586 16.1855 11.2815 14.0906 10.5659C15.0636 9.84693 15.7901 8.82819 16.1655 7.65637C16.5409 6.48455 16.5458 5.22014 16.1796 4.04525C15.8133 2.87036 15.0948 1.84564 14.1275 1.11867C13.1601 0.391694 11.994 0 10.7969 0C9.59979 0 8.43361 0.391694 7.46628 1.11867C6.49895 1.84564 5.78042 2.87036 5.41416 4.04525C5.0479 5.22014 5.05283 6.48455 5.42824 7.65637C5.80364 8.82819 6.53014 9.84693 7.50311 10.5659C5.40826 11.2815 3.58498 12.6586 2.29161 14.502C0.998243 16.3454 0.300371 18.5617 0.296875 20.8368ZM6.75841 5.84907C6.75841 5.02566 6.99527 4.22074 7.43902 3.5361C7.88277 2.85146 8.51349 2.31784 9.25142 2.00274C9.98936 1.68763 10.8014 1.60518 11.5847 1.76582C12.3681 1.92646 13.0877 2.32297 13.6525 2.90521C14.2173 3.48745 14.6019 4.22927 14.7577 5.03686C14.9136 5.84445 14.8336 6.68154 14.5279 7.44228C14.2223 8.20301 13.7046 8.85322 13.0405 9.31068C12.3764 9.76815 11.5956 10.0123 10.7969 10.0123C9.72615 10.0112 8.6996 9.57218 7.94248 8.79167C7.18536 8.01115 6.75953 6.95288 6.75841 5.84907ZM10.7969 11.6776C13.1524 11.6805 15.4106 12.6464 17.0761 14.3635C18.7417 16.0805 19.6787 18.4085 19.6815 20.8368V21.9012C13.9022 23.8038 7.69157 23.8038 1.91226 21.9012V20.8368C1.91508 18.4085 2.85204 16.0805 4.51762 14.3635C6.1832 12.6464 8.44139 11.6805 10.7969 11.6776Z" fill="black" fill-opacity="0.2"/>
</svg>
