<svg width="26" height="25" viewBox="0 0 26 25" fill="none" xmlns="http://www.w3.org/2000/svg">
<path fill-rule="evenodd" clip-rule="evenodd" d="M3.47997 1.072C5.04009 -0.563102 7.6091 -0.272567 8.9154 1.56794L10.5332 3.84357C11.5972 5.34084 11.5024 7.4327 10.2396 8.75564L9.93454 9.07726C9.89994 9.21227 9.89643 9.35403 9.92428 9.49076C10.005 10.0421 10.4422 11.2097 12.2728 13.1285C14.1034 15.0474 15.2187 15.5069 15.7494 15.5934C15.8832 15.6217 16.0213 15.6175 16.1532 15.5812L16.6763 15.0326C17.7992 13.8569 19.5222 13.6366 20.9118 14.4326L23.3603 15.8379C25.4588 17.0379 25.9883 20.0433 24.2705 21.8446L22.4488 23.7527C21.8745 24.354 21.1028 24.8553 20.1619 24.9486C17.8415 25.177 12.4356 24.8851 6.75276 18.9298C1.44937 13.3704 0.431513 8.52186 0.302037 6.13272C0.23794 4.92463 0.778919 3.90303 1.4686 3.18142L3.47997 1.072ZM7.37707 2.78278C6.72712 1.86793 5.51697 1.79496 4.83498 2.50981L2.82233 4.61788C2.39929 5.06112 2.19675 5.5503 2.22238 6.01786C2.32494 7.91647 3.14538 12.2907 8.10906 17.4933C13.3163 22.95 18.1249 23.1135 19.9837 22.9297C20.3631 22.8932 20.74 22.6851 21.0926 22.3162L22.9129 20.4068C23.6539 19.6311 23.4911 18.2176 22.4424 17.6176L19.9939 16.2136C19.3171 15.8271 18.5248 15.9542 18.0326 16.4704L17.4493 17.0825L16.7698 16.3636C17.4493 17.0825 17.448 17.0839 17.4467 17.0839L17.4454 17.0866L17.4416 17.0906L17.4326 17.0987L17.4134 17.1176C17.3593 17.1706 17.301 17.2185 17.239 17.2609C17.1365 17.3325 17.0006 17.4122 16.8301 17.4785C16.484 17.6149 16.025 17.6879 15.4584 17.596C14.347 17.4163 12.874 16.6177 10.9165 14.5663C8.96026 12.515 8.19623 10.9718 8.02445 9.80157C7.93599 9.20428 8.0065 8.72051 8.13726 8.35565C8.20922 8.15034 8.31226 7.95867 8.44236 7.78809L8.48338 7.7408L8.50133 7.72053L8.50902 7.71242L8.51287 7.70837L8.51543 7.70566L8.88463 7.31918C9.4333 6.74217 9.51022 5.78678 8.9936 5.05841L7.37707 2.78278Z" fill="#30373D"/>
<path fill-rule="evenodd" clip-rule="evenodd" d="M3.47997 1.072C5.04009 -0.563102 7.6091 -0.272567 8.9154 1.56794L10.5332 3.84357C11.5972 5.34084 11.5024 7.4327 10.2396 8.75564L9.93454 9.07726C9.89994 9.21227 9.89643 9.35403 9.92428 9.49076C10.005 10.0421 10.4422 11.2097 12.2728 13.1285C14.1034 15.0474 15.2187 15.5069 15.7494 15.5934C15.8832 15.6217 16.0213 15.6175 16.1532 15.5812L16.6763 15.0326C17.7992 13.8569 19.5222 13.6366 20.9118 14.4326L23.3603 15.8379C25.4588 17.0379 25.9883 20.0433 24.2705 21.8446L22.4488 23.7527C21.8745 24.354 21.1028 24.8553 20.1619 24.9486C17.8415 25.177 12.4356 24.8851 6.75276 18.9298C1.44937 13.3704 0.431513 8.52186 0.302037 6.13272C0.23794 4.92463 0.778919 3.90303 1.4686 3.18142L3.47997 1.072ZM7.37707 2.78278C6.72712 1.86793 5.51697 1.79496 4.83498 2.50981L2.82233 4.61788C2.39929 5.06112 2.19675 5.5503 2.22238 6.01786C2.32494 7.91647 3.14538 12.2907 8.10906 17.4933C13.3163 22.95 18.1249 23.1135 19.9837 22.9297C20.3631 22.8932 20.74 22.6851 21.0926 22.3162L22.9129 20.4068C23.6539 19.6311 23.4911 18.2176 22.4424 17.6176L19.9939 16.2136C19.3171 15.8271 18.5248 15.9542 18.0326 16.4704L17.4493 17.0825L16.7698 16.3636C17.4493 17.0825 17.448 17.0839 17.4467 17.0839L17.4454 17.0866L17.4416 17.0906L17.4326 17.0987L17.4134 17.1176C17.3593 17.1706 17.301 17.2185 17.239 17.2609C17.1365 17.3325 17.0006 17.4122 16.8301 17.4785C16.484 17.6149 16.025 17.6879 15.4584 17.596C14.347 17.4163 12.874 16.6177 10.9165 14.5663C8.96026 12.515 8.19623 10.9718 8.02445 9.80157C7.93599 9.20428 8.0065 8.72051 8.13726 8.35565C8.20922 8.15034 8.31226 7.95867 8.44236 7.78809L8.48338 7.7408L8.50133 7.72053L8.50902 7.71242L8.51287 7.70837L8.51543 7.70566L8.88463 7.31918C9.4333 6.74217 9.51022 5.78678 8.9936 5.05841L7.37707 2.78278Z" fill="black" fill-opacity="0.2"/>
<path fill-rule="evenodd" clip-rule="evenodd" d="M3.47997 1.072C5.04009 -0.563102 7.6091 -0.272567 8.9154 1.56794L10.5332 3.84357C11.5972 5.34084 11.5024 7.4327 10.2396 8.75564L9.93454 9.07726C9.89994 9.21227 9.89643 9.35403 9.92428 9.49076C10.005 10.0421 10.4422 11.2097 12.2728 13.1285C14.1034 15.0474 15.2187 15.5069 15.7494 15.5934C15.8832 15.6217 16.0213 15.6175 16.1532 15.5812L16.6763 15.0326C17.7992 13.8569 19.5222 13.6366 20.9118 14.4326L23.3603 15.8379C25.4588 17.0379 25.9883 20.0433 24.2705 21.8446L22.4488 23.7527C21.8745 24.354 21.1028 24.8553 20.1619 24.9486C17.8415 25.177 12.4356 24.8851 6.75276 18.9298C1.44937 13.3704 0.431513 8.52186 0.302037 6.13272C0.23794 4.92463 0.778919 3.90303 1.4686 3.18142L3.47997 1.072ZM7.37707 2.78278C6.72712 1.86793 5.51697 1.79496 4.83498 2.50981L2.82233 4.61788C2.39929 5.06112 2.19675 5.5503 2.22238 6.01786C2.32494 7.91647 3.14538 12.2907 8.10906 17.4933C13.3163 22.95 18.1249 23.1135 19.9837 22.9297C20.3631 22.8932 20.74 22.6851 21.0926 22.3162L22.9129 20.4068C23.6539 19.6311 23.4911 18.2176 22.4424 17.6176L19.9939 16.2136C19.3171 15.8271 18.5248 15.9542 18.0326 16.4704L17.4493 17.0825L16.7698 16.3636C17.4493 17.0825 17.448 17.0839 17.4467 17.0839L17.4454 17.0866L17.4416 17.0906L17.4326 17.0987L17.4134 17.1176C17.3593 17.1706 17.301 17.2185 17.239 17.2609C17.1365 17.3325 17.0006 17.4122 16.8301 17.4785C16.484 17.6149 16.025 17.6879 15.4584 17.596C14.347 17.4163 12.874 16.6177 10.9165 14.5663C8.96026 12.515 8.19623 10.9718 8.02445 9.80157C7.93599 9.20428 8.0065 8.72051 8.13726 8.35565C8.20922 8.15034 8.31226 7.95867 8.44236 7.78809L8.48338 7.7408L8.50133 7.72053L8.50902 7.71242L8.51287 7.70837L8.51543 7.70566L8.88463 7.31918C9.4333 6.74217 9.51022 5.78678 8.9936 5.05841L7.37707 2.78278Z" fill="black" fill-opacity="0.2"/>
<path fill-rule="evenodd" clip-rule="evenodd" d="M3.47997 1.072C5.04009 -0.563102 7.6091 -0.272567 8.9154 1.56794L10.5332 3.84357C11.5972 5.34084 11.5024 7.4327 10.2396 8.75564L9.93454 9.07726C9.89994 9.21227 9.89643 9.35403 9.92428 9.49076C10.005 10.0421 10.4422 11.2097 12.2728 13.1285C14.1034 15.0474 15.2187 15.5069 15.7494 15.5934C15.8832 15.6217 16.0213 15.6175 16.1532 15.5812L16.6763 15.0326C17.7992 13.8569 19.5222 13.6366 20.9118 14.4326L23.3603 15.8379C25.4588 17.0379 25.9883 20.0433 24.2705 21.8446L22.4488 23.7527C21.8745 24.354 21.1028 24.8553 20.1619 24.9486C17.8415 25.177 12.4356 24.8851 6.75276 18.9298C1.44937 13.3704 0.431513 8.52186 0.302037 6.13272C0.23794 4.92463 0.778919 3.90303 1.4686 3.18142L3.47997 1.072ZM7.37707 2.78278C6.72712 1.86793 5.51697 1.79496 4.83498 2.50981L2.82233 4.61788C2.39929 5.06112 2.19675 5.5503 2.22238 6.01786C2.32494 7.91647 3.14538 12.2907 8.10906 17.4933C13.3163 22.95 18.1249 23.1135 19.9837 22.9297C20.3631 22.8932 20.74 22.6851 21.0926 22.3162L22.9129 20.4068C23.6539 19.6311 23.4911 18.2176 22.4424 17.6176L19.9939 16.2136C19.3171 15.8271 18.5248 15.9542 18.0326 16.4704L17.4493 17.0825L16.7698 16.3636C17.4493 17.0825 17.448 17.0839 17.4467 17.0839L17.4454 17.0866L17.4416 17.0906L17.4326 17.0987L17.4134 17.1176C17.3593 17.1706 17.301 17.2185 17.239 17.2609C17.1365 17.3325 17.0006 17.4122 16.8301 17.4785C16.484 17.6149 16.025 17.6879 15.4584 17.596C14.347 17.4163 12.874 16.6177 10.9165 14.5663C8.96026 12.515 8.19623 10.9718 8.02445 9.80157C7.93599 9.20428 8.0065 8.72051 8.13726 8.35565C8.20922 8.15034 8.31226 7.95867 8.44236 7.78809L8.48338 7.7408L8.50133 7.72053L8.50902 7.71242L8.51287 7.70837L8.51543 7.70566L8.88463 7.31918C9.4333 6.74217 9.51022 5.78678 8.9936 5.05841L7.37707 2.78278Z" fill="black" fill-opacity="0.2"/>
<path fill-rule="evenodd" clip-rule="evenodd" d="M3.47997 1.072C5.04009 -0.563102 7.6091 -0.272567 8.9154 1.56794L10.5332 3.84357C11.5972 5.34084 11.5024 7.4327 10.2396 8.75564L9.93454 9.07726C9.89994 9.21227 9.89643 9.35403 9.92428 9.49076C10.005 10.0421 10.4422 11.2097 12.2728 13.1285C14.1034 15.0474 15.2187 15.5069 15.7494 15.5934C15.8832 15.6217 16.0213 15.6175 16.1532 15.5812L16.6763 15.0326C17.7992 13.8569 19.5222 13.6366 20.9118 14.4326L23.3603 15.8379C25.4588 17.0379 25.9883 20.0433 24.2705 21.8446L22.4488 23.7527C21.8745 24.354 21.1028 24.8553 20.1619 24.9486C17.8415 25.177 12.4356 24.8851 6.75276 18.9298C1.44937 13.3704 0.431513 8.52186 0.302037 6.13272C0.23794 4.92463 0.778919 3.90303 1.4686 3.18142L3.47997 1.072ZM7.37707 2.78278C6.72712 1.86793 5.51697 1.79496 4.83498 2.50981L2.82233 4.61788C2.39929 5.06112 2.19675 5.5503 2.22238 6.01786C2.32494 7.91647 3.14538 12.2907 8.10906 17.4933C13.3163 22.95 18.1249 23.1135 19.9837 22.9297C20.3631 22.8932 20.74 22.6851 21.0926 22.3162L22.9129 20.4068C23.6539 19.6311 23.4911 18.2176 22.4424 17.6176L19.9939 16.2136C19.3171 15.8271 18.5248 15.9542 18.0326 16.4704L17.4493 17.0825L16.7698 16.3636C17.4493 17.0825 17.448 17.0839 17.4467 17.0839L17.4454 17.0866L17.4416 17.0906L17.4326 17.0987L17.4134 17.1176C17.3593 17.1706 17.301 17.2185 17.239 17.2609C17.1365 17.3325 17.0006 17.4122 16.8301 17.4785C16.484 17.6149 16.025 17.6879 15.4584 17.596C14.347 17.4163 12.874 16.6177 10.9165 14.5663C8.96026 12.515 8.19623 10.9718 8.02445 9.80157C7.93599 9.20428 8.0065 8.72051 8.13726 8.35565C8.20922 8.15034 8.31226 7.95867 8.44236 7.78809L8.48338 7.7408L8.50133 7.72053L8.50902 7.71242L8.51287 7.70837L8.51543 7.70566L8.88463 7.31918C9.4333 6.74217 9.51022 5.78678 8.9936 5.05841L7.37707 2.78278Z" fill="black" fill-opacity="0.2"/>
</svg>
