<svg width="26" height="25" viewBox="0 0 26 25" fill="none" xmlns="http://www.w3.org/2000/svg">
<g clip-path="url(#clip0_3595_1918)">
<path d="M24.498 22.771L18.5479 16.5827C20.0778 14.7641 20.916 12.4759 20.916 10.0937C20.916 4.52814 16.3879 0 10.8223 0C5.25666 0 0.728516 4.52814 0.728516 10.0937C0.728516 15.6593 5.25666 20.1875 10.8223 20.1875C12.9117 20.1875 14.9028 19.5573 16.6051 18.361L22.6003 24.5963C22.8509 24.8565 23.188 25 23.5491 25C23.891 25 24.2153 24.8697 24.4615 24.6327C24.9846 24.1293 25.0013 23.2946 24.498 22.771ZM10.8223 2.63315C14.9361 2.63315 18.2828 5.97988 18.2828 10.0937C18.2828 14.2076 14.9361 17.5543 10.8223 17.5543C6.7084 17.5543 3.36167 14.2076 3.36167 10.0937C3.36167 5.97988 6.7084 2.63315 10.8223 2.63315Z" fill="#30373D"/>
<path d="M24.498 22.771L18.5479 16.5827C20.0778 14.7641 20.916 12.4759 20.916 10.0937C20.916 4.52814 16.3879 0 10.8223 0C5.25666 0 0.728516 4.52814 0.728516 10.0937C0.728516 15.6593 5.25666 20.1875 10.8223 20.1875C12.9117 20.1875 14.9028 19.5573 16.6051 18.361L22.6003 24.5963C22.8509 24.8565 23.188 25 23.5491 25C23.891 25 24.2153 24.8697 24.4615 24.6327C24.9846 24.1293 25.0013 23.2946 24.498 22.771ZM10.8223 2.63315C14.9361 2.63315 18.2828 5.97988 18.2828 10.0937C18.2828 14.2076 14.9361 17.5543 10.8223 17.5543C6.7084 17.5543 3.36167 14.2076 3.36167 10.0937C3.36167 5.97988 6.7084 2.63315 10.8223 2.63315Z" fill="black" fill-opacity="0.2"/>
<path d="M24.498 22.771L18.5479 16.5827C20.0778 14.7641 20.916 12.4759 20.916 10.0937C20.916 4.52814 16.3879 0 10.8223 0C5.25666 0 0.728516 4.52814 0.728516 10.0937C0.728516 15.6593 5.25666 20.1875 10.8223 20.1875C12.9117 20.1875 14.9028 19.5573 16.6051 18.361L22.6003 24.5963C22.8509 24.8565 23.188 25 23.5491 25C23.891 25 24.2153 24.8697 24.4615 24.6327C24.9846 24.1293 25.0013 23.2946 24.498 22.771ZM10.8223 2.63315C14.9361 2.63315 18.2828 5.97988 18.2828 10.0937C18.2828 14.2076 14.9361 17.5543 10.8223 17.5543C6.7084 17.5543 3.36167 14.2076 3.36167 10.0937C3.36167 5.97988 6.7084 2.63315 10.8223 2.63315Z" fill="black" fill-opacity="0.2"/>
<path d="M24.498 22.771L18.5479 16.5827C20.0778 14.7641 20.916 12.4759 20.916 10.0937C20.916 4.52814 16.3879 0 10.8223 0C5.25666 0 0.728516 4.52814 0.728516 10.0937C0.728516 15.6593 5.25666 20.1875 10.8223 20.1875C12.9117 20.1875 14.9028 19.5573 16.6051 18.361L22.6003 24.5963C22.8509 24.8565 23.188 25 23.5491 25C23.891 25 24.2153 24.8697 24.4615 24.6327C24.9846 24.1293 25.0013 23.2946 24.498 22.771ZM10.8223 2.63315C14.9361 2.63315 18.2828 5.97988 18.2828 10.0937C18.2828 14.2076 14.9361 17.5543 10.8223 17.5543C6.7084 17.5543 3.36167 14.2076 3.36167 10.0937C3.36167 5.97988 6.7084 2.63315 10.8223 2.63315Z" fill="black" fill-opacity="0.2"/>
<path d="M24.498 22.771L18.5479 16.5827C20.0778 14.7641 20.916 12.4759 20.916 10.0937C20.916 4.52814 16.3879 0 10.8223 0C5.25666 0 0.728516 4.52814 0.728516 10.0937C0.728516 15.6593 5.25666 20.1875 10.8223 20.1875C12.9117 20.1875 14.9028 19.5573 16.6051 18.361L22.6003 24.5963C22.8509 24.8565 23.188 25 23.5491 25C23.891 25 24.2153 24.8697 24.4615 24.6327C24.9846 24.1293 25.0013 23.2946 24.498 22.771ZM10.8223 2.63315C14.9361 2.63315 18.2828 5.97988 18.2828 10.0937C18.2828 14.2076 14.9361 17.5543 10.8223 17.5543C6.7084 17.5543 3.36167 14.2076 3.36167 10.0937C3.36167 5.97988 6.7084 2.63315 10.8223 2.63315Z" fill="black" fill-opacity="0.2"/>
</g>
<defs>
<clipPath id="clip0_3595_1918">
<rect width="25" height="25" fill="white" transform="translate(0.296875)"/>
</clipPath>
</defs>
</svg>
