<svg width="40" height="40" viewBox="0 0 40 40" fill="none" xmlns="http://www.w3.org/2000/svg">
<rect width="40" height="40" fill="#D9E1E6"/>
<path d="M10 28.8368V30.5021C9.99996 30.6756 10.0526 30.8449 10.1504 30.9862C10.2483 31.1274 10.3865 31.2336 10.5458 31.2899C13.7494 32.4231 17.1131 33.0009 20.5 33C23.8869 33.0012 27.2506 32.4233 30.4542 31.2899C30.6135 31.2336 30.7517 31.1274 30.8496 30.9862C30.9474 30.8449 31 30.6756 31 30.5021V28.8368C30.9965 26.5617 30.2986 24.3454 29.0053 22.502C27.7119 20.6586 25.8886 19.2815 23.7938 18.5659C24.7667 17.8469 25.4932 16.8282 25.8686 15.6564C26.244 14.4846 26.249 13.2201 25.8827 12.0453C25.5165 10.8704 24.7979 9.84564 23.8306 9.11867C22.8633 8.39169 21.6971 8 20.5 8C19.3029 8 18.1367 8.39169 17.1694 9.11867C16.2021 9.84564 15.4835 10.8704 15.1173 12.0453C14.751 13.2201 14.756 14.4846 15.1314 15.6564C15.5068 16.8282 16.2333 17.8469 17.2062 18.5659C15.1114 19.2815 13.2881 20.6586 11.9947 22.502C10.7014 24.3454 10.0035 26.5617 10 28.8368ZM16.4615 13.8491C16.4615 13.0257 16.6984 12.2207 17.1421 11.5361C17.5859 10.8515 18.2166 10.3178 18.9545 10.0027C19.6925 9.68763 20.5045 9.60518 21.2879 9.76582C22.0713 9.92646 22.7908 10.323 23.3556 10.9052C23.9204 11.4875 24.305 12.2293 24.4609 13.0369C24.6167 13.8445 24.5367 14.6815 24.2311 15.4423C23.9254 16.203 23.4078 16.8532 22.7436 17.3107C22.0795 17.7681 21.2987 18.0123 20.5 18.0123C19.4293 18.0112 18.4027 17.5722 17.6456 16.7917C16.8885 16.0112 16.4627 14.9529 16.4615 13.8491ZM20.5 19.6776C22.8555 19.6805 25.1137 20.6464 26.7793 22.3635C28.4448 24.0805 29.3818 26.4085 29.3846 28.8368V29.9012C23.6053 31.8038 17.3947 31.8038 11.6154 29.9012V28.8368C11.6182 26.4085 12.5552 24.0805 14.2207 22.3635C15.8863 20.6464 18.1445 19.6805 20.5 19.6776Z" fill="#30373D"/>
<path d="M10 28.8368V30.5021C9.99996 30.6756 10.0526 30.8449 10.1504 30.9862C10.2483 31.1274 10.3865 31.2336 10.5458 31.2899C13.7494 32.4231 17.1131 33.0009 20.5 33C23.8869 33.0012 27.2506 32.4233 30.4542 31.2899C30.6135 31.2336 30.7517 31.1274 30.8496 30.9862C30.9474 30.8449 31 30.6756 31 30.5021V28.8368C30.9965 26.5617 30.2986 24.3454 29.0053 22.502C27.7119 20.6586 25.8886 19.2815 23.7938 18.5659C24.7667 17.8469 25.4932 16.8282 25.8686 15.6564C26.244 14.4846 26.249 13.2201 25.8827 12.0453C25.5165 10.8704 24.7979 9.84564 23.8306 9.11867C22.8633 8.39169 21.6971 8 20.5 8C19.3029 8 18.1367 8.39169 17.1694 9.11867C16.2021 9.84564 15.4835 10.8704 15.1173 12.0453C14.751 13.2201 14.756 14.4846 15.1314 15.6564C15.5068 16.8282 16.2333 17.8469 17.2062 18.5659C15.1114 19.2815 13.2881 20.6586 11.9947 22.502C10.7014 24.3454 10.0035 26.5617 10 28.8368ZM16.4615 13.8491C16.4615 13.0257 16.6984 12.2207 17.1421 11.5361C17.5859 10.8515 18.2166 10.3178 18.9545 10.0027C19.6925 9.68763 20.5045 9.60518 21.2879 9.76582C22.0713 9.92646 22.7908 10.323 23.3556 10.9052C23.9204 11.4875 24.305 12.2293 24.4609 13.0369C24.6167 13.8445 24.5367 14.6815 24.2311 15.4423C23.9254 16.203 23.4078 16.8532 22.7436 17.3107C22.0795 17.7681 21.2987 18.0123 20.5 18.0123C19.4293 18.0112 18.4027 17.5722 17.6456 16.7917C16.8885 16.0112 16.4627 14.9529 16.4615 13.8491ZM20.5 19.6776C22.8555 19.6805 25.1137 20.6464 26.7793 22.3635C28.4448 24.0805 29.3818 26.4085 29.3846 28.8368V29.9012C23.6053 31.8038 17.3947 31.8038 11.6154 29.9012V28.8368C11.6182 26.4085 12.5552 24.0805 14.2207 22.3635C15.8863 20.6464 18.1445 19.6805 20.5 19.6776Z" fill="black" fill-opacity="0.2"/>
<path d="M10 28.8368V30.5021C9.99996 30.6756 10.0526 30.8449 10.1504 30.9862C10.2483 31.1274 10.3865 31.2336 10.5458 31.2899C13.7494 32.4231 17.1131 33.0009 20.5 33C23.8869 33.0012 27.2506 32.4233 30.4542 31.2899C30.6135 31.2336 30.7517 31.1274 30.8496 30.9862C30.9474 30.8449 31 30.6756 31 30.5021V28.8368C30.9965 26.5617 30.2986 24.3454 29.0053 22.502C27.7119 20.6586 25.8886 19.2815 23.7938 18.5659C24.7667 17.8469 25.4932 16.8282 25.8686 15.6564C26.244 14.4846 26.249 13.2201 25.8827 12.0453C25.5165 10.8704 24.7979 9.84564 23.8306 9.11867C22.8633 8.39169 21.6971 8 20.5 8C19.3029 8 18.1367 8.39169 17.1694 9.11867C16.2021 9.84564 15.4835 10.8704 15.1173 12.0453C14.751 13.2201 14.756 14.4846 15.1314 15.6564C15.5068 16.8282 16.2333 17.8469 17.2062 18.5659C15.1114 19.2815 13.2881 20.6586 11.9947 22.502C10.7014 24.3454 10.0035 26.5617 10 28.8368ZM16.4615 13.8491C16.4615 13.0257 16.6984 12.2207 17.1421 11.5361C17.5859 10.8515 18.2166 10.3178 18.9545 10.0027C19.6925 9.68763 20.5045 9.60518 21.2879 9.76582C22.0713 9.92646 22.7908 10.323 23.3556 10.9052C23.9204 11.4875 24.305 12.2293 24.4609 13.0369C24.6167 13.8445 24.5367 14.6815 24.2311 15.4423C23.9254 16.203 23.4078 16.8532 22.7436 17.3107C22.0795 17.7681 21.2987 18.0123 20.5 18.0123C19.4293 18.0112 18.4027 17.5722 17.6456 16.7917C16.8885 16.0112 16.4627 14.9529 16.4615 13.8491ZM20.5 19.6776C22.8555 19.6805 25.1137 20.6464 26.7793 22.3635C28.4448 24.0805 29.3818 26.4085 29.3846 28.8368V29.9012C23.6053 31.8038 17.3947 31.8038 11.6154 29.9012V28.8368C11.6182 26.4085 12.5552 24.0805 14.2207 22.3635C15.8863 20.6464 18.1445 19.6805 20.5 19.6776Z" fill="black" fill-opacity="0.2"/>
<path d="M10 28.8368V30.5021C9.99996 30.6756 10.0526 30.8449 10.1504 30.9862C10.2483 31.1274 10.3865 31.2336 10.5458 31.2899C13.7494 32.4231 17.1131 33.0009 20.5 33C23.8869 33.0012 27.2506 32.4233 30.4542 31.2899C30.6135 31.2336 30.7517 31.1274 30.8496 30.9862C30.9474 30.8449 31 30.6756 31 30.5021V28.8368C30.9965 26.5617 30.2986 24.3454 29.0053 22.502C27.7119 20.6586 25.8886 19.2815 23.7938 18.5659C24.7667 17.8469 25.4932 16.8282 25.8686 15.6564C26.244 14.4846 26.249 13.2201 25.8827 12.0453C25.5165 10.8704 24.7979 9.84564 23.8306 9.11867C22.8633 8.39169 21.6971 8 20.5 8C19.3029 8 18.1367 8.39169 17.1694 9.11867C16.2021 9.84564 15.4835 10.8704 15.1173 12.0453C14.751 13.2201 14.756 14.4846 15.1314 15.6564C15.5068 16.8282 16.2333 17.8469 17.2062 18.5659C15.1114 19.2815 13.2881 20.6586 11.9947 22.502C10.7014 24.3454 10.0035 26.5617 10 28.8368ZM16.4615 13.8491C16.4615 13.0257 16.6984 12.2207 17.1421 11.5361C17.5859 10.8515 18.2166 10.3178 18.9545 10.0027C19.6925 9.68763 20.5045 9.60518 21.2879 9.76582C22.0713 9.92646 22.7908 10.323 23.3556 10.9052C23.9204 11.4875 24.305 12.2293 24.4609 13.0369C24.6167 13.8445 24.5367 14.6815 24.2311 15.4423C23.9254 16.203 23.4078 16.8532 22.7436 17.3107C22.0795 17.7681 21.2987 18.0123 20.5 18.0123C19.4293 18.0112 18.4027 17.5722 17.6456 16.7917C16.8885 16.0112 16.4627 14.9529 16.4615 13.8491ZM20.5 19.6776C22.8555 19.6805 25.1137 20.6464 26.7793 22.3635C28.4448 24.0805 29.3818 26.4085 29.3846 28.8368V29.9012C23.6053 31.8038 17.3947 31.8038 11.6154 29.9012V28.8368C11.6182 26.4085 12.5552 24.0805 14.2207 22.3635C15.8863 20.6464 18.1445 19.6805 20.5 19.6776Z" fill="black" fill-opacity="0.2"/>
<path d="M10 28.8368V30.5021C9.99996 30.6756 10.0526 30.8449 10.1504 30.9862C10.2483 31.1274 10.3865 31.2336 10.5458 31.2899C13.7494 32.4231 17.1131 33.0009 20.5 33C23.8869 33.0012 27.2506 32.4233 30.4542 31.2899C30.6135 31.2336 30.7517 31.1274 30.8496 30.9862C30.9474 30.8449 31 30.6756 31 30.5021V28.8368C30.9965 26.5617 30.2986 24.3454 29.0053 22.502C27.7119 20.6586 25.8886 19.2815 23.7938 18.5659C24.7667 17.8469 25.4932 16.8282 25.8686 15.6564C26.244 14.4846 26.249 13.2201 25.8827 12.0453C25.5165 10.8704 24.7979 9.84564 23.8306 9.11867C22.8633 8.39169 21.6971 8 20.5 8C19.3029 8 18.1367 8.39169 17.1694 9.11867C16.2021 9.84564 15.4835 10.8704 15.1173 12.0453C14.751 13.2201 14.756 14.4846 15.1314 15.6564C15.5068 16.8282 16.2333 17.8469 17.2062 18.5659C15.1114 19.2815 13.2881 20.6586 11.9947 22.502C10.7014 24.3454 10.0035 26.5617 10 28.8368ZM16.4615 13.8491C16.4615 13.0257 16.6984 12.2207 17.1421 11.5361C17.5859 10.8515 18.2166 10.3178 18.9545 10.0027C19.6925 9.68763 20.5045 9.60518 21.2879 9.76582C22.0713 9.92646 22.7908 10.323 23.3556 10.9052C23.9204 11.4875 24.305 12.2293 24.4609 13.0369C24.6167 13.8445 24.5367 14.6815 24.2311 15.4423C23.9254 16.203 23.4078 16.8532 22.7436 17.3107C22.0795 17.7681 21.2987 18.0123 20.5 18.0123C19.4293 18.0112 18.4027 17.5722 17.6456 16.7917C16.8885 16.0112 16.4627 14.9529 16.4615 13.8491ZM20.5 19.6776C22.8555 19.6805 25.1137 20.6464 26.7793 22.3635C28.4448 24.0805 29.3818 26.4085 29.3846 28.8368V29.9012C23.6053 31.8038 17.3947 31.8038 11.6154 29.9012V28.8368C11.6182 26.4085 12.5552 24.0805 14.2207 22.3635C15.8863 20.6464 18.1445 19.6805 20.5 19.6776Z" fill="black" fill-opacity="0.2"/>
</svg>
