<svg width="25" height="26" viewBox="0 0 25 26" fill="none" xmlns="http://www.w3.org/2000/svg">
<path d="M2.63531 2.03164C2.3301 1.72643 1.83573 1.72643 1.53063 2.03164C1.22552 2.33685 1.22542 2.83122 1.53063 3.13633L6.37937 7.98518C4.82479 9.1857 3.3625 10.8383 2.08292 13.0007C6.20208 19.9618 12.1517 21.925 17.3117 18.9175L22.364 23.9698C22.5166 24.1224 22.7159 24.1986 22.9164 24.1986C23.1168 24.1986 23.3161 24.1224 23.4687 23.9698C23.774 23.6646 23.774 23.1702 23.4687 22.8651L2.63531 2.03164ZM12.4996 16.1257C10.7736 16.1257 9.37458 14.7266 9.37458 13.0007C9.37458 12.4222 9.5424 11.8871 9.81656 11.4224L14.0779 15.6837C13.6132 15.9578 13.0781 16.1257 12.4996 16.1257Z" fill="#2D7585"/>
<path opacity="0.3" d="M22.9158 13.0004C22.1256 14.3358 21.2636 15.4707 20.357 16.4393L9.99219 6.07449C14.5473 4.75178 19.3992 7.0573 22.9158 13.0004Z" fill="#2D7585"/>
</svg>
